<?xml version="1.0" encoding="utf-8"?>
<!-- Generator: Adobe Illustrator 25.2.0, SVG Export Plug-In . SVG Version: 6.00 Build 0)  -->
<svg version="1.1" id="Artwork" xmlns="http://www.w3.org/2000/svg" xmlns:xlink="http://www.w3.org/1999/xlink" x="0px" y="0px"
	 viewBox="0 0 122.6 82.3" style="enable-background:new 0 0 122.6 82.3;" xml:space="preserve">
<style type="text/css">
	.st0{fill:none;}
	.st1{fill:none;stroke:#5F6069;stroke-width:0.4925;stroke-miterlimit:10;}
	.st2{fill:#5F6069;}
	.st3{fill:#265F56;}
	.st4{fill:#5F6069;stroke:#5F6069;stroke-width:0.1;stroke-miterlimit:10;}
</style>
<g>
	<rect x="0.2" y="0.2" class="st0" width="122.6" height="82.3"/>
	<g>
		<g>
			<g>
				<path class="st1" d="M51.3,36.1c0,2.2-1.8,3.9-3.9,3.9c-2.2,0-3.9-1.8-3.9-3.9c0-2.2,1.8-3.9,3.9-3.9
					C49.5,32.2,51.3,33.9,51.3,36.1z"/>
				<path class="st1" d="M94.7,36.1c0,2.2-1.8,3.9-3.9,3.9c-2.2,0-3.9-1.8-3.9-3.9c0-2.2,1.8-3.9,3.9-3.9
					C92.9,32.2,94.7,33.9,94.7,36.1z"/>
				<path class="st1" d="M97.4,28.1l-5.8-12.2c-0.4-0.8-1.1-1.2-1.9-1.2H27c-0.6,0-1.1,0.5-1.1,1.1V33c0,0.4,0.2,0.7,0.5,0.9
					c3.4,1.9,7.1,2.9,11,2.9h4.4c0.1,0,0.3-0.1,0.4-0.2c0.1-0.1,0.2-0.2,0.1-0.4c0-0.1,0-0.1,0-0.2c0-2.8,2.2-5,5-5c2.8,0,5,2.2,5,5
					c0,0.3,0,0.6-0.1,0.9c0,0.2,0,0.3,0.1,0.4c0.1,0.1,0.2,0.2,0.4,0.2h32.5c0.2,0,0.3-0.1,0.4-0.2c0.1-0.1,0.1-0.3,0.1-0.4
					c0-0.3-0.1-0.6-0.1-0.9c0-2.8,2.2-5,5-5c2.8,0,5,2.2,5,5c0,0.3,0,0.6-0.1,0.9c0,0.2,0,0.3,0.1,0.4c0.1,0.1,0.2,0.2,0.4,0.2h1
					c0.6,0,1.1-0.5,1.1-1.1v-4.8C98.3,30.5,98,29.2,97.4,28.1z"/>
				<path class="st1" d="M78,28.2c0,0.3-0.2,0.5-0.5,0.5h-9.1c-0.3,0-0.5-0.2-0.5-0.5v-6.7c0-0.3,0.2-0.5,0.5-0.5h9.1
					c0.3,0,0.5,0.2,0.5,0.5V28.2z"/>
				<path class="st1" d="M66.2,36.1h-6.9V19.6c0-0.3,0.2-0.5,0.5-0.5h5.8c0.3,0,0.5,0.2,0.5,0.5V36.1z"/>
				<rect x="59.3" y="36.1" class="st1" width="6.9" height="1.5"/>
				<line class="st1" x1="79.7" y1="17.1" x2="79.7" y2="33.3"/>
				<line class="st1" x1="56.6" y1="32.3" x2="56.6" y2="17.1"/>
				<line class="st1" x1="47.4" y1="17.1" x2="47.4" y2="31.1"/>
				<line class="st1" x1="27.1" y1="33.3" x2="27.1" y2="17.1"/>
				<path class="st1" d="M43.1,25.9c0,0.3-0.2,0.5-0.5,0.5H31.9c-0.3,0-0.5-0.2-0.5-0.5v-6.7c0-0.3,0.2-0.5,0.5-0.5h10.7
					c0.3,0,0.5,0.2,0.5,0.5V25.9z"/>
				<path class="st1" d="M94.9,33.3h2.4c0.6,0,1-0.5,1-1v-0.9"/>
				<line class="st1" x1="56.6" y1="33.3" x2="86.6" y2="33.3"/>
				<line class="st1" x1="51.5" y1="33.3" x2="53.7" y2="33.3"/>
				<line class="st1" x1="26" y1="33.3" x2="43.2" y2="33.3"/>
				<path class="st1" d="M56.6,35.1c0,0.3-0.2,0.5-0.5,0.5h-1.9c-0.3,0-0.5-0.2-0.5-0.5v-2.2c0-0.3,0.2-0.5,0.5-0.5h2.4V35.1z"/>
				<g>
					<path class="st1" d="M96.3,25.8l-0.8,0.5c-0.1,0.1-0.3,0.1-0.4,0.1c-0.1,0-0.3-0.1-0.3-0.3l-3.3-6.9c-0.1-0.2,0-0.5,0.2-0.7
						l0.9-0.5"/>
					<path class="st1" d="M81.6,19.1c-0.3,0-0.5,0.2-0.5,0.5v8.6c0,0.3,0.2,0.5,0.5,0.5h11.3c0.3,0,0.5-0.2,0.5-0.5v-1.1
						c0-0.3-0.1-0.7-0.2-1L90,19.4c-0.1-0.2-0.3-0.3-0.5-0.3H81.6z"/>
				</g>
				<path class="st2" d="M61,28.9c-0.3,0-0.5-0.2-0.5-0.5v-1.3c0-0.3,0.2-0.5,0.5-0.5c0.3,0,0.5,0.2,0.5,0.5v1.3
					C61.5,28.7,61.3,28.9,61,28.9z"/>
				<path class="st1" d="M98.1,30.1l-2-0.7c-0.3-0.1-0.6,0-0.8,0.3c-0.2,0.3-0.2,0.6,0,0.8l0.3,0.5c0.6,0.8,1.6,1.3,2.6,1.3"/>
				<path class="st1" d="M65.1,25c0,0.3-0.2,0.5-0.5,0.5H61c-0.3,0-0.5-0.2-0.5-0.5v-4.2c0-0.3,0.2-0.5,0.5-0.5h3.5
					c0.3,0,0.5,0.2,0.5,0.5V25z"/>
				<path class="st1" d="M53.9,19.8c0,0.3-0.2,0.5-0.5,0.5h-2.2c-0.3,0-0.5-0.2-0.5-0.5v-0.9c0-0.3,0.2-0.5,0.5-0.5h2.2
					c0.3,0,0.5,0.2,0.5,0.5V19.8z"/>
				<path class="st1" d="M44.7,14.7v-0.8c0-0.3,0.2-0.5,0.5-0.5h7.1c0.3,0,0.5,0.2,0.5,0.5v0.8"/>
				<path class="st1" d="M74.4,14.7c0.3-0.2,0.5-0.6,0.5-1c0-0.4-0.2-0.8-0.5-1h-3.9h-3.9c-0.3,0.2-0.5,0.6-0.5,1
					c0,0.4,0.2,0.8,0.5,1"/>
				<path class="st1" d="M39.5,14.7c0.3-0.2,0.5-0.6,0.5-1c0-0.4-0.2-0.8-0.5-1h-3.9h-3.9c-0.3,0.2-0.5,0.6-0.5,1
					c0,0.4,0.2,0.8,0.5,1"/>
				<path class="st1" d="M71.5,33.8c0,0.3-0.2,0.5-0.5,0.5h-0.6c-0.3,0-0.5-0.2-0.5-0.5v-0.5l1.7,0V33.8z"/>
				<line class="st1" x1="75.2" y1="33.3" x2="75.2" y2="37.6"/>
				<line class="st1" x1="75.2" y1="33.3" x2="75.2" y2="37.6"/>
				<path class="st1" d="M80.6,33.8c0,0.3-0.2,0.5-0.5,0.5h-0.6c-0.3,0-0.5-0.2-0.5-0.5v-0.5h1.7V33.8z"/>
				<line class="st1" x1="84.2" y1="33.3" x2="84.2" y2="37.6"/>
				<line class="st1" x1="75.2" y1="37.6" x2="75.2" y2="33.3"/>
				<path class="st2" d="M80.1,16.8c0,0.2-0.2,0.4-0.4,0.4H56.6c-0.2,0-0.4-0.2-0.4-0.4c0-0.2,0.2-0.4,0.4-0.4h23.1
					C79.9,16.4,80.1,16.5,80.1,16.8z"/>
				<path class="st2" d="M47.7,16.8c0,0.2-0.2,0.4-0.4,0.4H27.1c-0.2,0-0.4-0.2-0.4-0.4c0-0.2,0.2-0.4,0.4-0.4h20.2
					C47.6,16.4,47.7,16.5,47.7,16.8z"/>
			</g>
			<g>
				<path class="st3" d="M40.5,55.4h-4.2l-1.3-5.8c-0.1-0.2-0.2-0.7-0.3-1.4c-0.1-0.7-0.2-1.3-0.3-1.8c0,0.4-0.1,0.9-0.2,1.5
					S34,49,33.9,49.5c-0.1,0.5-0.5,2.5-1.3,5.9h-4.2l-3.3-13.2h3.4l1.4,6.6c0.3,1.5,0.5,2.6,0.7,3.5c0.1-0.6,0.2-1.5,0.4-2.5
					c0.2-1.1,0.4-1.9,0.6-2.6l1.2-5h3.3l1.1,5c0.2,0.8,0.4,1.7,0.6,2.8c0.2,1,0.3,1.8,0.4,2.4c0.1-0.7,0.3-1.8,0.6-3.5l1.5-6.6h3.4
					L40.5,55.4z"/>
				<path class="st3" d="M48.4,55.6c-1.7,0-3-0.5-4-1.4c-0.9-0.9-1.4-2.2-1.4-3.9c0-1.7,0.4-3.1,1.3-4c0.9-0.9,2.1-1.4,3.7-1.4
					c1.5,0,2.7,0.4,3.6,1.2c0.8,0.8,1.3,2,1.3,3.5v1.6h-6.3c0,0.6,0.2,1,0.6,1.3c0.4,0.3,0.9,0.5,1.6,0.5c0.6,0,1.2-0.1,1.7-0.2
					c0.5-0.1,1.1-0.3,1.7-0.6v2.5c-0.6,0.3-1.1,0.5-1.7,0.6C49.9,55.6,49.2,55.6,48.4,55.6z M48.2,47.4c-0.4,0-0.8,0.1-1,0.4
					c-0.3,0.3-0.4,0.7-0.5,1.2h3c0-0.5-0.2-0.9-0.4-1.2C49,47.6,48.6,47.4,48.2,47.4z"/>
				<path class="st3" d="M60.3,55.4v-5.6c0-0.7-0.1-1.2-0.3-1.5c-0.2-0.3-0.5-0.5-0.9-0.5c-0.6,0-1,0.2-1.3,0.7
					c-0.3,0.5-0.4,1.3-0.4,2.5v4.5h-3.5V45.2h2.7l0.4,1.3h0.2c0.3-0.5,0.7-0.8,1.3-1.1s1.1-0.4,1.8-0.4c1.1,0,2,0.3,2.6,1
					c0.6,0.7,0.9,1.6,0.9,2.8v6.7H60.3z"/>
				<path class="st3" d="M68.3,55.6c-0.7,0-1.4-0.2-1.9-0.6s-1-1-1.3-1.8c-0.3-0.8-0.4-1.8-0.4-2.8c0-1.7,0.3-3,1-3.9
					c0.7-0.9,1.6-1.4,2.8-1.4c0.6,0,1.1,0.1,1.5,0.3c0.4,0.2,0.8,0.6,1.2,1.2h0.1C71,45.7,71,44.9,71,44.1v-2.7h3.6v14.1h-2.7
					l-0.8-1.3H71C70.4,55.1,69.5,55.6,68.3,55.6z M69.7,52.8c0.6,0,1-0.2,1.2-0.5c0.2-0.4,0.4-0.9,0.4-1.6v-0.3
					c0-0.9-0.1-1.5-0.4-1.9c-0.3-0.4-0.7-0.6-1.2-0.6c-0.5,0-0.8,0.2-1.1,0.7c-0.3,0.4-0.4,1.1-0.4,1.9c0,0.8,0.1,1.4,0.4,1.8
					C68.9,52.6,69.2,52.8,69.7,52.8z"/>
				<path class="st3" d="M75.4,45.2h3.7l1.7,5.9c0.1,0.3,0.1,0.7,0.2,1.1h0.1c0-0.4,0.1-0.8,0.2-1.1l1.8-5.9h3.6l-4.1,10.9
					c-0.5,1.4-1.2,2.4-1.9,2.9s-1.7,0.9-3,0.9c-0.5,0-1-0.1-1.4-0.2V57c0.3,0.1,0.7,0.1,1.1,0.1c0.3,0,0.6-0.1,0.8-0.2
					c0.2-0.1,0.4-0.3,0.6-0.5c0.2-0.2,0.4-0.6,0.6-1.1L75.4,45.2z"/>
				<path class="st3" d="M91,42.2l0.1,0.2c-0.6,2.2-1.1,3.9-1.6,5.1H87c0.4-1.9,0.7-3.7,0.9-5.3H91z"/>
				<path class="st3" d="M98.6,52.3c0,1.1-0.4,1.9-1.1,2.5s-1.8,0.8-3.2,0.8c-0.8,0-1.4,0-2-0.1c-0.6-0.1-1.1-0.2-1.7-0.4v-2.8
					c0.5,0.2,1.2,0.4,1.8,0.6C93,53,93.6,53,94.1,53c0.8,0,1.1-0.2,1.1-0.5c0-0.2-0.1-0.3-0.3-0.5c-0.2-0.1-0.8-0.4-1.9-0.8
					c-0.9-0.4-1.6-0.8-2-1.3c-0.4-0.5-0.6-1.1-0.6-1.9c0-1,0.4-1.7,1.1-2.2c0.7-0.5,1.8-0.8,3.1-0.8c0.7,0,1.3,0.1,1.9,0.2
					c0.6,0.1,1.2,0.4,1.8,0.6l-1,2.3c-0.5-0.2-1-0.4-1.5-0.5c-0.5-0.1-1-0.2-1.3-0.2c-0.6,0-0.9,0.1-0.9,0.4c0,0.2,0.1,0.3,0.3,0.4
					c0.2,0.1,0.8,0.4,1.8,0.8c0.7,0.3,1.3,0.6,1.6,0.9c0.4,0.3,0.6,0.6,0.8,1S98.6,51.7,98.6,52.3z"/>
			</g>
			<g>
				<path class="st4" d="M42.4,66.6v3h-0.5v-6.8h1.7c0.9,0,1.6,0.2,2,0.5c0.4,0.3,0.6,0.8,0.6,1.4c0,0.5-0.1,0.8-0.4,1.2
					c-0.3,0.3-0.6,0.5-1.2,0.7l2,3.1H46l-1.9-3H42.4z M42.4,66.2h1.4c0.6,0,1.1-0.1,1.4-0.4s0.5-0.6,0.5-1.1c0-0.5-0.2-0.9-0.5-1.1
					c-0.3-0.2-0.9-0.4-1.6-0.4h-1.2V66.2z"/>
				<path class="st4" d="M52.2,62.8h0.6l-2.7,6.8h-0.4l-2.7-6.8h0.5l1.8,4.6c0.3,0.7,0.5,1.2,0.6,1.6c0.1-0.2,0.2-0.6,0.4-1.1
					L52.2,62.8z"/>
				<path class="st4" d="M62.8,64.7c0,0.7-0.2,1.2-0.7,1.5c-0.5,0.3-1.2,0.5-2,0.5h-1.1v2.8h-0.5v-6.8h1.8
					C61.9,62.8,62.8,63.4,62.8,64.7z M58.9,66.4h1c0.8,0,1.4-0.1,1.8-0.4s0.5-0.7,0.5-1.2c0-0.5-0.2-0.9-0.5-1.2
					c-0.3-0.3-0.9-0.4-1.6-0.4h-1.2V66.4z"/>
				<path class="st4" d="M67.9,67.2h-3l-1,2.4h-0.6l2.9-6.8h0.3l2.9,6.8h-0.6L67.9,67.2z M65.1,66.7h2.6l-1-2.4
					c-0.1-0.2-0.2-0.5-0.3-0.8c-0.1,0.3-0.2,0.6-0.3,0.8L65.1,66.7z"/>
				<path class="st4" d="M71,66.6v3h-0.5v-6.8h1.7c0.9,0,1.6,0.2,2,0.5c0.4,0.3,0.6,0.8,0.6,1.4c0,0.5-0.1,0.8-0.4,1.2
					c-0.3,0.3-0.6,0.5-1.2,0.7l2,3.1h-0.6l-1.9-3H71z M71,66.2h1.4c0.6,0,1.1-0.1,1.4-0.4s0.5-0.6,0.5-1.1c0-0.5-0.2-0.9-0.5-1.1
					c-0.3-0.2-0.9-0.4-1.6-0.4H71V66.2z"/>
				<path class="st4" d="M81.5,69.6h-0.6L78.1,66l-1,0.8v2.8h-0.5v-6.8h0.5v3.5l0.8-0.8l2.9-2.8h0.6l-3,2.9L81.5,69.6z"/>
			</g>
			<line class="st1" x1="25.9" y1="62.9" x2="36.8" y2="62.9"/>
			<line class="st1" x1="87" y1="62.9" x2="98" y2="62.9"/>
		</g>
		<g>
			<path class="st3" d="M96.1,43.6h-0.4v-1.1h-0.4v-0.4h1.2v0.4h-0.4V43.6z M97.4,43.6l-0.3-1h0c0,0.1,0,0.2,0,0.2v0.8h-0.4v-1.5
				h0.6l0.3,1l0.3-1h0.6v1.5h-0.4v-0.8c0-0.1,0-0.2,0-0.2h0l-0.3,1H97.4z"/>
		</g>
	</g>
</g>
</svg>
